<svg id="Layer_1" data-name="Layer 1" xmlns="http://www.w3.org/2000/svg" viewBox="0 0 213.82 97.37">
    <path fill="#FFFFFF" d="M84.47,9.92a.57.57,0,0,0-.29.2c-4.09,4.53-9.59,10.15-14.73,16.05a1.7,1.7,0,0,1-.75.51,1.93,1.93,0,0,1-.61.05,56.74,56.74,0,0,0-8.32.55c-.33,0-.66.14-.77-.25a1.8,1.8,0,0,1,0-.65l.35-3.08a1.54,1.54,0,0,0,0-.57,1.91,1.91,0,0,0-2.42-1.07,2,2,0,0,0-1.17.82,35,35,0,0,0-2.05,4.63c-.59,1.24-.48,1.64-4.2,2.74-6.72,2-25.3,10.26-31.44,17.21-1.22,1.34-1.59,2.53-1.35,3.39a2.09,2.09,0,0,0,1.82,1.4c1.54.23,5.51-.94,7.14-1.35h0c.18-.05.25-.34.19-.56s-.15-.27-.29-.23c-.95.18-6.45,1.43-6.92.71l0-.07c-.08-.29.1-.76.79-1.49C25.07,42.42,40.29,34.32,50,31.41l.4-.11c.9-.25,1.37-.22,1.47.14a2.75,2.75,0,0,1-.25,1.35,184.91,184.91,0,0,0-5,19.56,8.17,8.17,0,0,1-1.48,3.35c-4.91,6.77-9.35,13-13.43,20-8.09,13.76-10.48,22.66-9.17,27.4,1.09,4,4.75,5,9.86,3.63,6.69-1.84,15.92-7.94,25.11-17.44C67,79.43,79.78,62.1,83.77,47.66A21.12,21.12,0,0,0,84,36.6c-1.4-5.07-5.21-9.09-12.48-9.64-.35,0-.53-.09-.56-.2s.12-.27.27-.42C75.83,20.94,82,14.4,85.18,11.2a.73.73,0,0,0,.17-.66A.81.81,0,0,0,84.47,9.92Zm-27.78,15a.63.63,0,0,1,.34-.32c.11,0,.2,0,.25.2a2.34,2.34,0,0,1,0,.76c-.1,1.73-.1,2.16-.82,2.35l-.11,0c-.37.06-.55,0-.62-.29C55.58,27,56.42,25.35,56.69,24.93ZM49.92,47.84c1.14-5.54,3-11.54,4.62-16.79.29-.93.6-1.21,1-1.33l.63-.1a.39.39,0,0,1,.47.3,2.07,2.07,0,0,1,0,.78c-.3,2.41-.87,5.54-1.06,7.1V38a.69.69,0,0,0,.83.35.55.55,0,0,0,.41-.46c.5-2.69,1-5.19,1.51-7.73.18-.9.32-1.09.79-1.22l.66-.14A29.06,29.06,0,0,1,67.16,28c.27,0,.48.06.51.17a.7.7,0,0,1-.22.45c-5.37,6.08-11.1,12.92-16.71,19.81a2.13,2.13,0,0,1-.73.71.17.17,0,0,1-.19-.14A2.16,2.16,0,0,1,49.92,47.84Zm31.59-12a17.63,17.63,0,0,1,.5,5.63c-.63,13.45-13.37,32.24-26.19,46.1C46.94,97.18,37.37,104,31,105.76c-3.85,1.06-6.56.34-7.39-2.68-.66-2.41-.13-6.23,2-11.73,4.37-11.26,11.57-21.22,18.46-31,.55-.81.91-1.18,1.09-1.23s.12,0,.15.11a4.73,4.73,0,0,1-.12,1.54C44.25,66.44,42,84.3,43.89,91a6.36,6.36,0,0,0,.56,1.47,1.6,1.6,0,0,0,1.86.73,1.92,1.92,0,0,0,1.21-1A4.78,4.78,0,0,0,48,89.32c-.07-.25-.24-.44-.42-.39a.77.77,0,0,0-.4.38c-.41.62-.77,1.57-1,1.64s-.17-.07-.25-.36a8.48,8.48,0,0,1-.23-1.52c-1-11.42,1-23.15,3.1-34.28a8.23,8.23,0,0,1,1.77-3.39Q59.62,39.91,69,28.71a1.36,1.36,0,0,1,.71-.51,2.76,2.76,0,0,1,1,0C76.56,28.66,80.21,31.1,81.51,35.81Z" transform="translate(-16.59 -9.9)"/>
    <path fill="#FFFFFF" d="M157.29,61.18c3.93-4.13,8-10.17,11.54-15,.59-.85.84-1,.46.13-1.8,5.44-6.08,21.35-4.5,27.25.47,1.84,1.84,2.4,2.73,2.25,1.56-.23,1.49-2.21.5-1.82-1.28.48-1.83.66-1.64-2.75.66-12.32,5.53-27.56,10.1-36.47,2.57-5,7.75-13,10.39-18.22.37-.73-1-1.25-1.61-.7-3.67,3.33-10.4,16.72-12.11,20.4-2.08,4.48-13,20-17.36,24.3-1.35,1.3-2.47,2-2-.94a43,43,0,0,1,8.84-19.41c.7-.86,3-3.78,4.31-3.33.76.26,1.33,2.58,1.67,3.31s.85.52,1,0a5.1,5.1,0,0,0-.13-3.24c-1-1.59-3.67-1.64-5.19-.74a20.72,20.72,0,0,0-6.51,6.8.54.54,0,0,0-.68-.1c-3.44,2.42-6.07,4.36-11.25,8.67-3-3.39-7.22-4.6-7.37-7.85-.28-5.33,6.24-10.52,7.52-10.08,1,.35-.6,6.8-1,8.3-.11.42.59.73.77.26a46.07,46.07,0,0,0,2.54-7.66c.14-1.66-1.64-2.69-3.52-2-3.62,1.32-9,6.73-8.62,11.53a3.71,3.71,0,0,0,.38,1.34,54,54,0,0,0-7.5,5.36c.63-7.28.55-13.71-1.15-17.2-1-1.94-3.21-.9-3.8.31-3.26,6.79-6.64,14.57-12.26,25.46-2.27,4.46-3.9,6.8-2.88.41a68.25,68.25,0,0,1,4.1-13.68c.32-.68-1.39-1.31-1.8-.5a37.12,37.12,0,0,0-1.71,4.18.59.59,0,0,0-.82.25c-1.08,2.52-5.47,7.86-6.9,7.9-2.73,0,1.76-12.82,1.72-14.67,0-1.63-2.58-2.25-3.55-.93-5.36,7-8.47,19.54-10.32,27.22C88.62,67.79,91.62,49.88,96,44.35c.48-.66-1.13-1.38-1.54-.73-4.31,5.74-8.33,20.28-6.89,29.91.18,1.37,2.89,1.43,3.11,0,1.15-8,6-26.37,10.71-30.21,0,2.63-4.65,15-1.16,16.23,2.73.93,6.44-4.09,8.49-7.19-1.56,5-2.83,10.72-2.26,12.85.32,1.16,1.9,1.43,3,.25,2.54-2.58,5.13-7.69,7.65-13,3.7-8,6.63-15,8.09-16.88,2.17-2.79,1.62,14.69,1.32,16.54a3.23,3.23,0,0,1-1.33,2.07c-8,7.49-18.42,19.17-23,28.86-8.95,19.08,3.72,20.19,14.55,3.82,4.53-6.89,8.84-17.14,11.38-31.43a6.83,6.83,0,0,1,.86-2.68c.54-1,5.23-4.86,7.95-6.53,1.81,2.44,6.19,3.76,7.54,6.9a55.88,55.88,0,0,0-8.14,9.08c-5.39,8-.94,12.27,5.56,5.66,3.59-3.64,6.46-10.16,5-14.07-.24-.58-.21-1,.52-1.62,2.92-2.53,6.13-4.89,9.26-7.23-3.1,5.37-5.19,11.8-5.26,16,0,1.57.59,2.06,2.25,2.35C154.9,63.39,156.09,62.47,157.29,61.18ZM125.77,55.9c-2.19,10.1-5.2,21.6-11.1,31-8.64,13.76-18.35,14.34-11.75-1.32,4.52-10.66,15.55-23.51,22.29-29.92C125.77,55.15,126,55.13,125.77,55.9Zm15,10.41c-4.79,5.66-7.24,3.49-3.23-2.92a41.14,41.14,0,0,1,7.59-8.88C146,57.12,143.73,62.81,140.72,66.31Z" transform="translate(-16.59 -9.9)"/>
    <path fill="#FFFFFF" d="M199.3,68.47c-.82.3-1.23.45-1.42-.52-1.23-7.35,3.91-20.89,9.84-33,2.72-5.56,6-10.41,9.1-16.26.78-1.53-1.49-2.42-2.24-1.08-3.06,5.6-6.26,13-9.5,18.21-6.79,10.86-15.62,23.47-16.78,23.09-2.68-.89,4.81-18.69,6.63-22,.41-.6-1-1.45-1.57-.82s-1,1.31-2.05,2.8a3.77,3.77,0,0,0-3.1-2.31c-2.57-.11-5.59,2.43-9.1,7.58s-5.93,11.6-5.63,13.84a2.56,2.56,0,0,0,4,1.86c1.79-1.08,7.79-10.33,12.56-17-1.75,4.1-4.88,13-4.58,15.33.26,1.72,2.61,2.83,4.59,1.75,1.6-.86,7.31-9.66,12.45-17.68-4.55,10.78-7.34,20.48-6.33,26.26a2.33,2.33,0,0,0,2.42,2.2C200,70.41,200.16,68.14,199.3,68.47ZM189,42.15C184.19,49,176.88,59.24,176,59c-2-.52,1.53-8.13,5.33-14.14,2.94-4.63,5.89-7.5,7.16-7.28S190.49,40,189,42.15Z" transform="translate(-16.59 -9.9)"/>
    <path fill="#FFFFFF" d="M229.24,43C224.5,47.73,218,55,212.58,58.74c-2,1.36-3.64,1.92-3.88,0-.83-6.09,6.23-17.14,10.72-21.18.74-.71.72-.3.55.33-1.35,4.83-6.11,11.43-8.53,11.28-.56,0-.39.43.23.65,4.26,1.58,9.06-8.27,10-11.14.71-2.24-2.32-3.84-3.91-2.65-5.34,4-12.16,15.37-11.35,22.65.29,2.52,3.59,3.08,5.79,2.26,3.88-1.42,14.88-13.7,18.06-16.95C230.8,43.36,229.9,42.5,229.24,43Z" transform="translate(-16.59 -9.9)"/>
    <path fill="#7F7F7F" d="M133.51,81.21a3.08,3.08,0,0,0-1.39-.28h-2.46v7.13h1.17V85.17h1.29a3.09,3.09,0,0,0,1.45-.3,1.88,1.88,0,0,0,.82-.78,2.16,2.16,0,0,0,.26-1,2.1,2.1,0,0,0-.28-1.08A2,2,0,0,0,133.51,81.21Zm-.4,2.69a1.43,1.43,0,0,1-1,.3h-1.29V81.87h1.29q1.32,0,1.32,1.17A1.09,1.09,0,0,1,133.11,83.9Z" transform="translate(-16.59 -9.9)"/>
    <polygon fill="#7F7F7F" points="125.23 74.08 121.87 74.08 121.87 71.02 120.71 71.02 120.71 78.15 121.87 78.15 121.87 75.03 125.23 75.03 125.23 78.15 126.4 78.15 126.4 71.02 125.23 71.02 125.23 74.08"/>
    <path fill="#7F7F7F" d="M151.16,81.3a3.82,3.82,0,0,0-3.67,0,3.37,3.37,0,0,0-1.32,1.3,3.85,3.85,0,0,0,0,3.76,3.43,3.43,0,0,0,1.32,1.3,3.82,3.82,0,0,0,3.67,0,3.43,3.43,0,0,0,1.32-1.3,3.92,3.92,0,0,0,0-3.76A3.5,3.5,0,0,0,151.16,81.3Zm.28,4.56a2.21,2.21,0,0,1-.87.92,2.64,2.64,0,0,1-2.52,0,2.27,2.27,0,0,1-.87-.92,2.94,2.94,0,0,1-.31-1.39,2.87,2.87,0,0,1,.31-1.38,2.19,2.19,0,0,1,.87-.91,2.64,2.64,0,0,1,2.52,0,2.25,2.25,0,0,1,.87.91,2.92,2.92,0,0,1,.31,1.38A2.82,2.82,0,0,1,151.44,85.86Z" transform="translate(-16.59 -9.9)"/>
    <polygon fill="#7F7F7F" points="138.69 71.98 140.59 71.98 140.59 78.15 141.76 78.15 141.76 71.98 143.66 71.98 143.66 71.02 138.69 71.02 138.69 71.98"/>
    <path fill="#7F7F7F" d="M168.06,81.3a3.82,3.82,0,0,0-3.67,0,3.37,3.37,0,0,0-1.32,1.3,3.85,3.85,0,0,0,0,3.76,3.43,3.43,0,0,0,1.32,1.3,3.82,3.82,0,0,0,3.67,0,3.43,3.43,0,0,0,1.32-1.3,3.92,3.92,0,0,0,0-3.76A3.37,3.37,0,0,0,168.06,81.3Zm.29,4.56a2.21,2.21,0,0,1-.87.92,2.64,2.64,0,0,1-2.52,0,2.27,2.27,0,0,1-.87-.92,2.94,2.94,0,0,1-.31-1.39,2.87,2.87,0,0,1,.31-1.38,2.19,2.19,0,0,1,.87-.91,2.64,2.64,0,0,1,2.52,0,2.25,2.25,0,0,1,.87.91,3.25,3.25,0,0,1,0,2.77Z" transform="translate(-16.59 -9.9)"/>
    <path fill="#7F7F7F" d="M175.4,85.08h2.68a2.33,2.33,0,0,1-.73,1.45,2.21,2.21,0,0,1-1.55.53,2.51,2.51,0,0,1-1.26-.32,2.19,2.19,0,0,1-.87-.91,2.84,2.84,0,0,1-.31-1.36,2.8,2.8,0,0,1,.31-1.35,2.22,2.22,0,0,1,.87-.9,2.51,2.51,0,0,1,1.26-.32,2.34,2.34,0,0,1,1.14.27,1.89,1.89,0,0,1,.77.81h1.41a3.21,3.21,0,0,0-1.29-1.58,3.88,3.88,0,0,0-3.86-.09,3.37,3.37,0,0,0-1.32,1.3,3.85,3.85,0,0,0,0,3.76,3.43,3.43,0,0,0,1.32,1.3,3.7,3.7,0,0,0,1.84.47,3.48,3.48,0,0,0,1.7-.42,3.59,3.59,0,0,0,1.24-1.11,3.5,3.5,0,0,0,.59-1.53v-.91h-3.93v.91Z" transform="translate(-16.59 -9.9)"/>
    <path fill="#7F7F7F" d="M186.59,84.32a2.14,2.14,0,0,0,.41-1.27,2.07,2.07,0,0,0-.28-1.08,2,2,0,0,0-.85-.77,3.07,3.07,0,0,0-1.39-.29H182V88h1.17V85.2h.89l1.64,2.85h1.4l-1.76-3A2.07,2.07,0,0,0,186.59,84.32Zm-3.41,0V81.88h1.29a1.39,1.39,0,0,1,1,.31,1.15,1.15,0,0,1,.33.87,1.18,1.18,0,0,1-.33.88,1.34,1.34,0,0,1-1,.33Z" transform="translate(-16.59 -9.9)"/>
    <path fill="#7F7F7F" d="M192.17,80.91l-2.55,7.14h1.22l.51-1.46h3l.51,1.46h1.23l-2.55-7.14Zm-.49,4.73,1.17-3.31L194,85.64Z" transform="translate(-16.59 -9.9)"/>
    <path fill="#7F7F7F" d="M202.57,81.21a3.08,3.08,0,0,0-1.39-.28h-2.46v7.13h1.17V85.17h1.29a3.09,3.09,0,0,0,1.45-.3,1.88,1.88,0,0,0,.82-.78,2.16,2.16,0,0,0,.26-1,2.1,2.1,0,0,0-.28-1.08A1.91,1.91,0,0,0,202.57,81.21Zm-.39,2.69a1.44,1.44,0,0,1-1,.3h-1.29V81.87h1.29q1.32,0,1.32,1.17A1.06,1.06,0,0,1,202.18,83.9Z" transform="translate(-16.59 -9.9)"/>
    <polygon fill="#7F7F7F" points="194.3 74.08 190.94 74.08 190.94 71.02 189.77 71.02 189.77 78.15 190.94 78.15 190.94 75.03 194.3 75.03 194.3 78.15 195.47 78.15 195.47 71.02 194.3 71.02 194.3 74.08"/>
    <polygon fill="#7F7F7F" points="200.88 74.52 199.23 71.02 197.93 71.02 200.3 75.57 200.3 78.15 201.47 78.15 201.47 75.57 203.83 71.02 202.53 71.02 200.88 74.52"/>
</svg>